# xmcd
#
# Track frame offsets: 
#        150
#        39030
#        57555
#        82385
#        95812
#        106495
#        121035
#        125537
#        132482
#        146280
#        174577
#        192487
#        213037
#        236135
#        244900
#        260652
#
# Disc length: 3865 seconds
#
# Revision: 1
# Processed by: cddbd v1.5.2PL0 Copyright (c) Steve Scherf et al.
# Submitted via: ExactAudioCopyFreeDBPlugin 1.0
#
DISCID=f00f1710
DTITLE=Das Rennquintett - BACh
DYEAR=2000
DGENRE=Brass Ensemble
TTITLE0=Toccata und Fuge d-moll BWV 565
TTITLE1=Jauchzet Gott in allen Landen BWV 51
TTITLE2="Air" aus Ouvertüre Nr.3 D-Dur BWV 1068
TTITLE3=Allegro assai 2. Brandenburgisches Konzert BWV 1047
TTITLE4=Suite h-moll BWV 1067 Bourree I - Bourree II
TTITLE5=Suite h-moll BWV 1067 Polonaise
TTITLE6=Suite h-moll BWV 1067 Menuett
TTITLE7=Suite h-moll BWV 1067 Badinerie
TTITLE8=Kleine Fuge g-moll BWV 578
TTITLE9=Toccata, Adagio u. Fuge C-Dur BWV 565 Toccata
TTITLE10=Toccata, Adagio u. Fuge C-Dur BWV 565 Adagio
TTITLE11=Toccata, Adagio u. Fuge C-Dur BWV 565 Fuge
TTITLE12=Vivace BWV 1029
TTITLE13=Fuga g-moll BWV 131a
TTITLE14=Herz und Mund u.Tat und Leben BWV 78
TTITLE15=Präludium und Fuge BWV 532
EXTD=YEAR: 2000
EXTT0=
EXTT1=
EXTT2=
EXTT3=
EXTT4=
EXTT5=
EXTT6=
EXTT7=
EXTT8=
EXTT9=
EXTT10=
EXTT11=
EXTT12=
EXTT13=
EXTT14=
EXTT15=
PLAYORDER=
